<?xml version="1.0" encoding="UTF-8"?>
<svg width="1200pt" height="1200pt" version="1.1" viewBox="0 0 1200 1200" xmlns="http://www.w3.org/2000/svg">
 <g>
  <path d="m656.18 369.73c4.3555-50.656 29.168-95.316 65.695-126.39v-121.41c0-10.387-8.4219-18.809-18.809-18.809h-571.76c-10.383 0-18.805 8.4219-18.805 18.809v328.01c0 10.383 8.4219 18.805 18.809 18.805h485.55c15.648-25.352 30.062-65.672 39.316-99.023zm-352.04 13.32c-3.6641 3.6641-8.4609 5.4922-13.258 5.4922s-9.5938-1.832-13.258-5.4922l-76.309-76.305c-12.598-12.613-12.598-33.121-0.007812-45.727l73.992-73.988c7.3242-7.3242 19.188-7.3242 26.516 0 7.3242 7.3203 7.3242 19.195 0 26.516l-70.332 70.336 72.656 72.656c7.3242 7.3164 7.3242 19.191 0 26.512zm156.75-174.18-87.207 169.5c-3.3242 6.4648-9.8867 10.176-16.691 10.176-2.8828 0-5.8125-0.66797-8.5586-2.082-9.2109-4.7383-12.836-16.039-8.0938-25.25l87.203-169.5c4.7344-9.1953 16.039-12.832 25.25-8.0938 9.2148 4.7383 12.84 16.039 8.0977 25.25zm65.027 174.18c-3.6641 3.6641-8.4609 5.4922-13.258 5.4922s-9.5938-1.832-13.258-5.4922c-7.3242-7.3203-7.3242-19.195 0-26.516l70.332-70.336-72.648-72.656c-7.3242-7.3203-7.3242-19.195 0-26.516 7.3242-7.3242 19.188-7.3242 26.516 0l76.301 76.305c6.1094 6.1055 9.4766 14.227 9.4766 22.871 0 8.6406-3.3672 16.762-9.4766 22.875z"/>
  <path d="m699.51 297.12c-0.47266 0.78125-0.96094 1.5508-1.4219 2.3398-1.6797 2.8125-3.207 5.7227-4.7227 8.6367-1.4648 2.8828-2.9141 5.7734-4.2148 8.75-0.48047 1.0664-0.9375 2.1484-1.3945 3.2266-6.9297 16.332-11.5 33.902-12.961 52.391-4.7422 17.332-18.039 62.406-36.43 96.285-5.0977 9.3945-10.574 17.945-16.375 24.75-5.875 6.8906-8.875 15.625-8.9609 24.547-0.027344 2.9023 0.23828 5.8242 0.83594 8.707l0.12109 0.58203c3.543 17.129 17.23 30.246 34.434 32.707 4.1172 0.58984 8.7617 1.1055 13.992 1.5 25.027 1.8945 50.324-6.4062 67.723-24.492 2.6875-2.793 5.2109-5.9336 7.5742-9.3164 0.82031-1.1875 1.6172-2.4023 2.3828-3.6602 0.9375-1.5273 1.875-3.0547 2.7227-4.6992 27.938 20.926 62.469 33.496 100.01 33.703 0.30859 0 0.61328 0.046875 0.92578 0.046875 6.0234 0 11.961-0.34375 17.82-0.95703 33.246-3.4922 63.578-16.664 88.223-36.605 12.555 27.281 32 45.984 61.371 45.984 7.6016 0 14.289-0.32031 20.18-0.88281 24.426-2.3242 42.859-23.238 42.859-47.898v-0.6875c0-13.707-6.0469-26.566-16.148-35.836-39.25-36.016-39.121-97.234-51.812-136.88-18.195-65.797-75.078-115.5-144.73-122.79-5.8398-0.61328-11.762-0.94922-17.762-0.94922-47.965 0-91.152 20.105-121.88 52.234-8.4922 8.8789-15.961 18.699-22.367 29.262zm162.06 236.09c-5.8555 0.69922-11.781 1.1602-17.82 1.1602-0.3125 0-0.61719-0.046875-0.92969-0.046875-53.379-0.32812-100.11-28.73-126.44-71.109-11.246-18.098-18.773-38.691-21.441-60.812 9.4648-0.35156 18.465-1.6914 26.934-3.9219 69.043-18.188 104.73-91.094 104.73-91.094 4.7383 11.227 10.27 21.121 16.219 29.953 5.918 8.7891 12.262 16.43 18.75 23.109 24.363 25.066 50.547 36.27 62.094 40.25 3.6367 1.2539 6.0391 4.5859 6.1289 8.4336 0.72266 29.867 4.418 61.234 12.828 87.75-22.211 19.547-50.172 32.648-81.051 36.328z"/>
  <path d="m936.72 600.43v-9.5156c0-10.355-8.3945-18.75-18.75-18.75h-130.42c-10.355 0-18.75 8.3945-18.75 18.75v9.082h-0.28516c-44.113 0-85.988 19.418-114.49 53.086l-105.86 125.06-0.0625-0.074219-57.441 66.699c-3.7031 4.3008-8.9414 6.5156-14.219 6.5156-4.207 0-8.4414-1.4102-11.93-4.293l-107.96-89.184-23.918-30.066c-15.043-18.91-31.938-36.266-50.43-51.816l-46.477-39.082c-5.5117-4.6328-12.25-6.9141-18.961-6.918-7.7891 0-15.543 3.0703-21.316 9.1094-10.027 10.492-10.926 26.723-2.1172 38.254l18.137 23.746c3.7188 4.8672 4.8242 11.242 2.9609 17.078l-6.1523 19.293c-6.1172 19.176-1.5195 40.16 12.055 55.023l1.1523 1.2617c15.074 16.508 32.297 30.91 51.211 42.824l0.3125-0.26172 148.67 153.75c18.332 18.957 42.832 28.582 67.418 28.582 21.598 0 43.262-7.4258 60.875-22.473l94.641-80.859c-0.17188-0.64844-0.32031-1.3008-0.48047-1.9492-2.2812-9.1836-3.5742-18.641-3.6328-28.293-0.003906-0.25-0.035156-0.49609-0.035156-0.75v-79.66c0-5.1758 4.1914-9.375 9.375-9.375s9.375 4.1992 9.375 9.375v79.66c0 26.707 10.262 51.941 28.895 71.066l2.3711 1.9805c2.0703 1.7852 3.2617 4.3828 3.2617 7.1172v2.0195l0.16406 0.23438v138.83c0 10.355 8.3945 18.75 18.75 18.75h285.3c0.82812 0 1.6172-0.14844 2.418-0.25 0.88672 0.12891 1.7812 0.25 2.7031 0.25l93.785-0.003906c10.355 0 18.75-8.3945 18.75-18.75v-318c0-100.65-79.371-182.54-178.9-187.07zm-627.02 246.79-23.211-24.004c-1.8828-1.9453-4.1172-3.3828-6.5195-4.3086-16.422-10.668-31.426-23.395-44.641-37.863l-1.1484-1.2578c-9.0195-9.8789-12.102-23.938-8.0352-36.68l6.1562-19.293c3.7188-11.66 1.5039-24.43-5.9258-34.156l-18.137-23.746c-3.2266-4.2227-2.9023-10.078 0.76953-13.918 2.043-2.1367 4.8008-3.3164 7.7617-3.3164 1.7812 0 4.4219 0.4375 6.8945 2.5156l46.477 39.082c17.5 14.715 33.59 31.25 47.824 49.141l23.918 30.066c0.8125 1.0195 1.7266 1.9531 2.7305 2.7812l21.93 18.117-8.625 8.625c-3.6328-1.7109-7.6445-2.7422-11.922-2.7422-15.531 0-28.125 12.594-28.125 28.125 0 4.2812 1.0312 8.293 2.7422 11.926zm228.09 134.63c-13.57 11.594-30.863 17.98-48.695 17.98-20.523 0-39.68-8.1211-53.938-22.867l-112.43-116.26 11.07-11.074c3.6992 1.793 7.8008 2.8828 12.188 2.8828 15.531 0 28.125-12.594 28.125-28.125 0-4.3867-1.0898-8.4883-2.8828-12.188l9.8242-9.8242 71.512 59.074c6.707 5.5391 15.184 8.5898 23.875 8.5898 10.934 0 21.293-4.75 28.422-13.031l35.852-41.629 88.703 88.188zm259.08-119.35h-65.625c-5.1836 0-9.375-4.1992-9.375-9.375s4.1914-9.375 9.375-9.375h65.625c5.1836 0 9.375 4.1992 9.375 9.375s-4.1914 9.375-9.375 9.375zm91.68-55.105c-10.355 0-18.75-8.3945-18.75-18.75s8.3945-18.75 18.75-18.75c10.355 0 18.75 8.3945 18.75 18.75s-8.3945 18.75-18.75 18.75zm0-74.25c-10.355 0-18.75-8.3945-18.75-18.75s8.3945-18.75 18.75-18.75c10.355 0 18.75 8.3945 18.75 18.75s-8.3945 18.75-18.75 18.75zm55.234-89.082c-27.539 12.457-58.602 18.254-97.77 18.254-63.656 0-97-17.812-98.391-18.57-4.5391-2.4805-6.2148-8.1758-3.7344-12.723 2.4922-4.5312 8.1484-6.1953 12.707-3.7461 0.66016 0.35156 31.367 16.289 89.418 16.289 36.41 0 65.02-5.2734 90.043-16.59 4.7148-2.1367 10.273-0.042968 12.406 4.6797s0.035156 10.273-4.6797 12.406zm153.09 462.26h-80.227c0-1.1406 0.066406-1.4414 0.050781-1.7617l-10.191-203.88c-0.52734-10.703 8.0117-19.672 18.727-19.672h71.641z"/>
 </g>
</svg>
